<svg xmlns="http://www.w3.org/2000/svg" width="23" height="20" viewBox="0 0 23 20">
    <path fill="#505050" fill-rule="nonzero" d="M5.337 18.145c-.9.479-1.913.719-3.038.719-.346 0-.702-.023-1.048-.073a.83.83 0 0 1-.698-.646.847.847 0 0 1 .365-.895c.576-.375 1.017-.904 1.318-1.573C.792 13.986 0 11.902 0 9.773 0 4.385 4.94 0 11.02 0c6.08 0 11.02 4.385 11.02 9.773s-4.94 9.773-11.02 9.773c-2.011 0-3.969-.484-5.683-1.401zM6.7 10.476h3.353v3.363a.702.702 0 1 0 1.403 0V10.47H14.8a.702.702 0 0 0 .701-.705.702.702 0 0 0-.701-.705h-3.353V5.705a.702.702 0 1 0-1.403 0v3.368H6.7a.702.702 0 0 0 0 1.403z"/>
</svg>
